<svg xmlns="http://www.w3.org/2000/svg" xmlns:xlink="http://www.w3.org/1999/xlink" width="500" zoomAndPan="magnify" viewBox="0 0 375 374.999991" height="500" preserveAspectRatio="xMidYMid meet" version="1.0"><rect x="-37.5" width="450" fill="#ffffff" y="-37.499999" height="449.999989" fill-opacity="1"/><rect x="-37.5" width="450" fill="#ffffff" y="-37.499999" height="449.999989" fill-opacity="1"/><path stroke-linecap="butt" transform="matrix(5.900735, 0, 0, 5.898839, 22.956295, 4.169676)" fill-opacity="1" fill="#66cc33" fill-rule="nonzero" stroke-linejoin="miter" d="M 18.15729 26.333678 C 17.960678 20.308923 23.148723 16.67672 27.65028 15.294695 C 32.246503 13.884195 38.358029 16.609837 39.867375 22.133302 C 41.536923 28.246131 33.88229 31.507498 33.925319 38.231543 C 33.957095 43.26365 39.657523 49.623482 38.495062 54.59864 C 37.960171 56.889874 35.678941 58.369244 33.917375 58.78842 C 32.34845 59.161243 30.670296 58.361297 29.562118 57.062048 C 27.050514 54.117878 27.131277 48.599711 25.521308 44.665542 C 23.221542 39.046057 18.355888 32.447169 18.15729 26.333016 Z M 18.15729 26.333678 " stroke="#000000" stroke-width="0.041" stroke-opacity="1" stroke-miterlimit="4"/><path stroke-linecap="round" transform="matrix(0.226942, -0.0171066, -0.00295037, 0.250052, 597.740989, 129.272248)" fill-opacity="1" fill="#66cc33" fill-rule="nonzero" stroke-linejoin="bevel" d="M -1466.694784 -392.165421 C -1466.672933 -387.836698 -1466.806133 -383.518582 -1467.128636 -379.197796 C -1467.451342 -374.892645 -1467.946531 -370.614915 -1468.614201 -366.364608 C -1469.28187 -362.1143 -1470.139453 -357.908228 -1471.152696 -353.759671 C -1472.16594 -349.611113 -1473.352275 -345.536884 -1474.69427 -341.52017 C -1476.053493 -337.504634 -1477.568986 -333.59352 -1479.240343 -329.755555 C -1480.911904 -325.933227 -1482.739735 -322.215319 -1484.723836 -318.601833 C -1486.690709 -314.987169 -1488.814055 -311.492561 -1491.094079 -308.133647 C -1493.356874 -304.773553 -1495.742094 -301.562431 -1498.283991 -298.487002 C -1500.80866 -295.410394 -1503.455957 -292.498393 -1506.225678 -289.735363 C -1508.995399 -286.972333 -1511.870723 -284.388367 -1514.851447 -281.967829 C -1517.832171 -279.547291 -1520.918701 -277.321453 -1524.076379 -275.272322 C -1527.234056 -273.22319 -1530.480109 -271.351944 -1533.797716 -269.688676 C -1537.115323 -268.025408 -1540.504484 -266.570119 -1543.93054 -265.304814 C -1547.373823 -264.040688 -1550.854205 -262.982183 -1554.388913 -262.130477 C -1557.906393 -261.277593 -1561.461174 -260.645965 -1565.035826 -260.21878 C -1568.610478 -259.791594 -1572.205204 -259.584487 -1575.802572 -259.580643 C -1579.382712 -259.575621 -1582.982926 -259.790676 -1586.55153 -260.222274 C -1590.137159 -260.639415 -1593.674153 -261.287554 -1597.21379 -262.138958 C -1600.735995 -262.973547 -1604.209566 -264.039136 -1607.651324 -265.305631 C -1611.092879 -266.55649 -1614.468368 -268.021535 -1617.795019 -269.701943 C -1621.104239 -271.365536 -1624.346987 -273.212044 -1627.506442 -275.271557 C -1630.682921 -277.316614 -1633.758676 -279.557863 -1636.733503 -281.979668 C -1639.708126 -284.385837 -1642.59905 -286.973742 -1645.35459 -289.739845 C -1648.127154 -292.491492 -1650.78136 -295.406881 -1653.317207 -298.486012 C -1655.835826 -301.563964 -1658.235679 -304.774388 -1660.499742 -308.131739 C -1662.764009 -311.504726 -1664.891875 -314.977733 -1666.866724 -318.59649 C -1668.858801 -322.216426 -1670.680022 -325.934025 -1672.347818 -329.766103 C -1674.015411 -333.582544 -1675.52958 -337.513464 -1676.889715 -341.511954 C -1678.232825 -345.524902 -1679.4219 -349.605421 -1680.439714 -353.752332 C -1681.457731 -357.914878 -1682.304079 -362.112546 -1682.978961 -366.36097 C -1683.653844 -370.609395 -1684.13983 -374.891761 -1684.454148 -379.209249 C -1684.78549 -383.51228 -1684.927732 -387.833617 -1684.897899 -392.158805 C -1684.91975 -396.487528 -1684.78655 -400.805643 -1684.463843 -405.110794 C -1684.14134 -409.431581 -1683.646152 -413.70931 -1682.978482 -417.959618 C -1682.293584 -422.208747 -1681.453229 -426.415998 -1680.439986 -430.564555 C -1679.426743 -434.713113 -1678.240408 -438.787341 -1676.881185 -442.802877 C -1675.538986 -446.803956 -1674.023696 -450.730706 -1672.352136 -454.553035 C -1670.680779 -458.390999 -1668.852948 -462.108907 -1666.868847 -465.722392 C -1664.884746 -469.335878 -1662.761196 -472.81485 -1660.498401 -476.174944 C -1658.235605 -479.535037 -1655.83336 -482.760616 -1653.308691 -485.837224 C -1650.784022 -488.913832 -1648.136726 -491.825833 -1645.367005 -494.588863 C -1642.597081 -497.336257 -1639.72196 -499.935859 -1636.741032 -502.340761 C -1633.760309 -504.761299 -1630.673982 -507.002773 -1627.516304 -509.051904 C -1624.341398 -511.099857 -1621.11237 -512.956646 -1617.794763 -514.619914 C -1614.47736 -516.298817 -1611.088199 -517.754107 -1607.644915 -519.018233 C -1604.21886 -520.283538 -1600.738478 -521.342043 -1597.20377 -522.193749 C -1593.686087 -523.030997 -1590.131508 -523.678261 -1586.556856 -524.105446 C -1582.982204 -524.532632 -1579.387479 -524.739739 -1575.790111 -524.743583 C -1572.192743 -524.747427 -1568.609756 -524.53355 -1565.041152 -524.101952 C -1561.455321 -523.669176 -1557.901302 -523.035493 -1554.378893 -522.185268 C -1550.856484 -521.335043 -1547.383116 -520.28509 -1543.941358 -519.018595 C -1540.499601 -517.7521 -1537.124112 -516.287055 -1533.797663 -514.622283 C -1530.488443 -512.958689 -1527.245492 -511.096546 -1524.069013 -509.05149 C -1520.909558 -506.991976 -1517.834007 -504.766363 -1514.85918 -502.344558 C -1511.867329 -499.93721 -1508.99343 -497.334848 -1506.220865 -494.583202 C -1503.465325 -491.817098 -1500.811119 -488.901709 -1498.275476 -485.838214 C -1495.756857 -482.760261 -1493.3568 -479.534202 -1491.092737 -476.176851 C -1488.828674 -472.8195 -1486.700604 -469.330857 -1484.725959 -465.727735 C -1482.733882 -462.1078 -1480.912661 -458.3902 -1479.244864 -454.558123 C -1477.55984 -450.724867 -1476.045875 -446.809583 -1474.702765 -442.796636 C -1473.34263 -438.798145 -1472.170782 -434.718805 -1471.152766 -430.556258 C -1470.134952 -426.409347 -1469.288604 -422.21168 -1468.613721 -417.963255 C -1467.938635 -413.699195 -1467.452852 -409.432464 -1467.121307 -405.113798 C -1466.807193 -400.811946 -1466.664951 -396.490608 -1466.694784 -392.165421 Z M -1466.694784 -392.165421 " stroke="#445a26" stroke-width="0.3" stroke-opacity="1" stroke-miterlimit="4"/><path stroke-linecap="round" transform="matrix(0.128105, -0.0162218, -0.00566471, 0.155847, 395.88865, 96.533703)" fill-opacity="1" fill="#66cc33" fill-rule="nonzero" stroke-linejoin="bevel" d="M -1466.697852 -392.148248 C -1466.659505 -387.833146 -1466.803845 -383.511995 -1467.131986 -379.209976 C -1467.460128 -374.907956 -1467.941438 -370.62188 -1468.606548 -366.354935 C -1469.272773 -362.11317 -1470.123912 -357.915718 -1471.159966 -353.762577 C -1472.165386 -349.606248 -1473.356835 -345.519411 -1474.704792 -341.524059 C -1476.051635 -337.503526 -1477.5561 -333.599658 -1479.246594 -329.765283 C -1480.906454 -325.927719 -1482.754569 -322.210008 -1484.729672 -318.605774 C -1486.703662 -314.976359 -1488.805753 -311.485601 -1491.097214 -308.139877 C -1493.35804 -304.790964 -1495.745855 -301.555528 -1498.293518 -298.487118 C -1500.810548 -295.415519 -1503.456792 -292.507757 -1506.231139 -289.738652 C -1509.005485 -286.969547 -1511.879526 -284.386271 -1514.852149 -281.963644 C -1517.825885 -279.566197 -1520.898202 -277.329399 -1524.070215 -275.278431 C -1527.242228 -273.227462 -1530.483301 -271.359134 -1533.79455 -269.698627 C -1537.105799 -268.03812 -1540.486109 -266.560254 -1543.936594 -265.290208 C -1547.388192 -264.045344 -1550.847585 -262.976742 -1554.378266 -262.141143 C -1557.907833 -261.280362 -1561.447422 -260.646207 -1565.026552 -260.216683 C -1568.605682 -259.78716 -1572.194833 -259.584261 -1575.792892 -259.582806 C -1579.39095 -259.581351 -1582.967283 -259.778152 -1586.554751 -260.226757 C -1590.141105 -260.650182 -1593.6751 -261.268674 -1597.220229 -262.138971 C -1600.733611 -262.980898 -1604.226381 -264.046262 -1607.666791 -265.306692 C -1611.076568 -266.563933 -1614.464619 -268.01943 -1617.801424 -269.695175 C -1621.107595 -271.36773 -1624.360294 -273.210172 -1627.500479 -275.266484 C -1630.671298 -277.325985 -1633.758011 -279.552183 -1636.731097 -281.967071 C -1639.704183 -284.381959 -1642.594276 -286.988726 -1645.368515 -289.73382 C -1648.143868 -292.504096 -1650.772734 -295.409511 -1653.317494 -298.481624 C -1655.83162 -301.550549 -1658.231006 -304.782982 -1660.513424 -308.128564 C -1662.766323 -311.496138 -1664.902255 -314.97686 -1666.861066 -318.589533 C -1668.850511 -322.205395 -1670.661722 -325.928028 -1672.355966 -329.763809 C -1674.019576 -333.596401 -1675.534472 -337.513773 -1676.900654 -341.515923 C -1678.237317 -345.540066 -1679.423038 -349.598626 -1680.430525 -353.763958 C -1681.467532 -357.907297 -1682.293445 -362.103858 -1682.96953 -366.360018 C -1683.645616 -370.616178 -1684.140126 -374.903567 -1684.451949 -379.197005 C -1684.795519 -383.518812 -1684.925768 -387.84348 -1684.902848 -392.152205 C -1684.911676 -396.489298 -1684.767336 -400.810449 -1684.469828 -405.115657 C -1684.141686 -409.417677 -1683.660377 -413.703753 -1682.964632 -417.96751 C -1682.298408 -422.209274 -1681.447269 -426.406727 -1680.441848 -430.563056 C -1679.436428 -434.719385 -1678.243866 -438.781041 -1676.897022 -442.801574 C -1675.550179 -446.822107 -1674.01508 -450.722786 -1672.35522 -454.56035 C -1670.664727 -458.394726 -1668.847245 -462.115625 -1666.872142 -465.719859 C -1664.897039 -469.324093 -1662.764314 -472.811663 -1660.504601 -476.185756 C -1658.243774 -479.534669 -1655.825326 -482.766916 -1653.308296 -485.838515 C -1650.791267 -488.910114 -1648.145022 -491.817876 -1645.370676 -494.586981 C -1642.595216 -497.330906 -1639.722288 -499.939362 -1636.748552 -502.336809 C -1633.745296 -504.756247 -1630.672978 -506.993045 -1627.500966 -509.044014 C -1624.359587 -511.098171 -1621.118513 -512.966499 -1617.77663 -514.623817 C -1614.465382 -516.284324 -1611.085071 -517.762191 -1607.664107 -519.010244 C -1604.213622 -520.280289 -1600.723595 -521.345702 -1597.192915 -522.181302 C -1593.693981 -523.045271 -1590.123758 -523.676238 -1586.544629 -524.105761 C -1582.965499 -524.535284 -1579.376348 -524.738183 -1575.808922 -524.742827 C -1572.210864 -524.744282 -1568.602784 -524.519112 -1565.047063 -524.098876 C -1561.460709 -523.675451 -1557.894968 -523.02859 -1554.381585 -522.186662 C -1550.868203 -521.344735 -1547.375433 -520.279371 -1543.935023 -519.018941 C -1540.494612 -517.758511 -1537.105448 -516.277833 -1533.80039 -514.630458 C -1530.494219 -512.957903 -1527.240407 -511.09028 -1524.070701 -509.05596 C -1520.899882 -506.996459 -1517.843803 -504.77345 -1514.870717 -502.358562 C -1511.866998 -499.940485 -1509.007538 -497.336907 -1506.233299 -494.591813 C -1503.457946 -491.821537 -1500.798446 -488.912933 -1498.28432 -485.844009 C -1495.738447 -482.746715 -1493.340175 -479.539462 -1491.087276 -476.171888 C -1488.835491 -472.829495 -1486.698446 -469.323593 -1484.710114 -465.732911 C -1482.751303 -462.120238 -1480.909459 -458.394417 -1479.245848 -454.561824 C -1477.551605 -450.726043 -1476.067342 -446.81186 -1474.70116 -442.80971 C -1473.333864 -438.782379 -1472.177663 -434.701826 -1471.140655 -430.558487 C -1470.134282 -426.418336 -1469.277735 -422.218586 -1468.60165 -417.962426 C -1467.956198 -413.709455 -1467.461688 -409.422066 -1467.119231 -405.125439 C -1466.806295 -400.806821 -1466.676046 -396.482153 -1466.697852 -392.148248 Z M -1466.697852 -392.148248 " stroke="#445a26" stroke-width="0.3" stroke-opacity="1" stroke-miterlimit="4"/><path stroke-linecap="round" transform="matrix(0.111937, -0.0142162, -0.00495662, 0.136204, 339.300628, 103.571016)" fill-opacity="1" fill="#66cc33" fill-rule="nonzero" stroke-linejoin="bevel" d="M -1466.700651 -392.16206 C -1466.63088 -383.49361 -1467.262288 -374.898344 -1468.628656 -366.351109 C -1469.961241 -357.829028 -1472.00266 -349.553007 -1474.717852 -341.519387 C -1477.397986 -333.482108 -1480.758273 -325.831292 -1484.729871 -318.588433 C -1488.70147 -311.345575 -1493.220641 -304.647418 -1498.287385 -298.493963 C -1503.352853 -292.311696 -1508.867096 -286.807215 -1514.865173 -281.98418 C -1520.826916 -277.128673 -1527.136084 -273.026412 -1533.793954 -269.706211 C -1540.450549 -266.357197 -1547.318161 -263.83323 -1554.396791 -262.13431 C -1561.440362 -260.431731 -1568.59105 -259.572034 -1575.780013 -259.576713 C -1583.004035 -259.585051 -1590.12482 -260.414315 -1597.215038 -262.129449 C -1604.270198 -263.840924 -1611.152003 -266.366007 -1617.790336 -269.69738 C -1624.428669 -273.028752 -1630.752136 -277.130283 -1636.724402 -281.9695 C -1642.696669 -286.808717 -1648.245066 -292.320678 -1653.299475 -298.498063 C -1658.387667 -304.650294 -1662.90665 -311.345382 -1666.856424 -318.583326 C -1670.842532 -325.853741 -1674.181659 -333.486819 -1676.875081 -341.511371 C -1679.604836 -349.568395 -1681.611114 -357.836701 -1682.965306 -366.352418 C -1684.320774 -374.896949 -1684.945108 -383.479885 -1684.875919 -392.162511 C -1684.94569 -400.830962 -1684.314283 -409.426228 -1682.981698 -417.948309 C -1681.614053 -426.466731 -1679.60897 -434.775224 -1676.893777 -442.808844 C -1674.178585 -450.842464 -1670.852081 -458.468126 -1666.880482 -465.710985 C -1662.908884 -472.953843 -1658.390989 -479.680812 -1653.324245 -485.834267 C -1648.222442 -491.984063 -1642.708199 -497.488544 -1636.746456 -502.344051 C -1630.749655 -507.195899 -1624.440486 -511.298159 -1617.782616 -514.61836 C -1611.126022 -517.967374 -1604.25841 -520.491341 -1597.214839 -522.19392 C -1590.136209 -523.89284 -1583.02058 -524.756197 -1575.796558 -524.747859 C -1568.572536 -524.739521 -1561.450475 -523.881444 -1554.396591 -522.198781 C -1547.306373 -520.483647 -1540.459627 -517.962224 -1533.786235 -514.627192 C -1527.147902 -511.29582 -1520.824435 -507.194289 -1514.852168 -502.355072 C -1508.879902 -497.515854 -1503.366564 -492.007553 -1498.277096 -485.826509 C -1493.223963 -479.677936 -1488.703704 -472.954036 -1484.718871 -465.712433 C -1480.734038 -458.470831 -1477.394911 -450.837753 -1474.70149 -442.8132 C -1472.006793 -434.759835 -1469.965457 -426.487871 -1468.609989 -417.943341 C -1467.255797 -409.427623 -1466.631463 -400.844687 -1466.700651 -392.16206 Z M -1466.700651 -392.16206 " stroke="#445a26" stroke-width="0.3" stroke-opacity="1" stroke-miterlimit="4"/><path stroke-linecap="round" transform="matrix(0.103853, -0.0131544, -0.00460257, 0.126412, 298.432135, 123.326226)" fill-opacity="1" fill="#66cc33" fill-rule="nonzero" stroke-linejoin="bevel" d="M -1466.718013 -392.155099 C -1466.635085 -383.494214 -1467.268744 -374.876997 -1468.621742 -366.365534 C -1469.97474 -357.854072 -1471.977006 -349.564677 -1474.704114 -341.505213 C -1477.39481 -333.472861 -1480.743029 -325.848841 -1484.709606 -318.598176 C -1488.676184 -311.347511 -1493.1938 -304.648601 -1498.261079 -298.470403 C -1503.367522 -292.327182 -1508.87798 -286.813119 -1514.869405 -281.967124 C -1520.823043 -277.117196 -1527.149788 -273.047716 -1533.809102 -269.692663 C -1540.469791 -266.368654 -1547.316026 -263.836476 -1554.38697 -262.131104 C -1561.457914 -260.425733 -1568.605169 -259.593528 -1575.788194 -259.568469 C -1583.010383 -259.578386 -1590.156357 -260.414696 -1597.191079 -262.135557 C -1604.262212 -263.829305 -1611.145143 -266.368695 -1617.799333 -269.687705 C -1624.454899 -273.03776 -1630.766984 -277.124595 -1636.736965 -281.979254 C -1642.705571 -286.802869 -1648.253745 -292.324356 -1653.303162 -298.473763 C -1658.391743 -304.658146 -1662.901863 -311.369452 -1666.87131 -318.611613 C -1670.840757 -325.853773 -1674.188454 -333.494749 -1676.876612 -341.530606 C -1679.602557 -349.570396 -1681.624297 -357.845915 -1682.97962 -366.361097 C -1684.334943 -374.876278 -1684.941393 -383.468036 -1684.874547 -392.144236 C -1684.958852 -400.836165 -1684.323817 -409.422338 -1682.972194 -417.964845 C -1681.619196 -426.476307 -1679.61693 -434.765703 -1676.888446 -442.794122 C -1674.159962 -450.822542 -1670.850907 -458.481539 -1666.88433 -465.732203 C -1662.916376 -472.951824 -1658.400136 -479.681778 -1653.293694 -485.825 C -1648.226415 -492.003198 -1642.715956 -497.51726 -1636.723155 -502.332211 C -1630.769517 -507.182139 -1624.444148 -511.282663 -1617.784834 -514.637716 C -1611.124145 -517.961725 -1604.27791 -520.493903 -1597.206966 -522.199275 C -1590.136022 -523.904646 -1582.988768 -524.736852 -1575.804366 -524.730867 C -1568.583553 -524.751994 -1561.436204 -523.884639 -1554.36507 -522.19089 C -1547.331724 -520.501074 -1540.448793 -517.961685 -1533.793227 -514.61163 C -1527.139037 -511.29262 -1520.826952 -507.205785 -1514.856971 -502.351125 C -1508.886989 -497.496466 -1503.340191 -492.006023 -1498.289398 -485.825572 C -1493.202193 -479.672233 -1488.692073 -472.960928 -1484.722626 -465.718767 C -1480.753179 -458.476606 -1477.405482 -450.835631 -1474.717324 -442.799773 C -1471.991379 -434.759983 -1469.969639 -426.484464 -1468.614316 -417.969283 C -1467.257618 -409.423057 -1466.613379 -400.827367 -1466.718013 -392.155099 Z M -1466.718013 -392.155099 " stroke="#445a26" stroke-width="0.3" stroke-opacity="1" stroke-miterlimit="4"/><path stroke-linecap="round" transform="matrix(0.0780667, -0.00991005, -0.00342243, 0.0949713, 238.274139, 141.294087)" fill-opacity="1" fill="#66cc33" fill-rule="nonzero" stroke-linejoin="bevel" d="M -1466.681979 -392.150448 C -1466.651633 -383.468674 -1467.276573 -374.896408 -1468.603444 -366.356256 C -1469.980582 -357.821349 -1471.969985 -349.555986 -1474.720643 -341.53458 C -1477.419221 -333.46661 -1480.737311 -325.833462 -1484.723366 -318.599061 C -1488.709422 -311.364661 -1493.218076 -304.637231 -1498.303219 -298.504658 C -1503.336283 -292.32552 -1508.899192 -286.818633 -1514.841144 -281.96826 C -1520.833363 -277.123133 -1527.159792 -273.053235 -1533.816807 -269.675927 C -1540.475635 -266.339939 -1547.321493 -263.846083 -1554.401026 -262.116967 C -1561.432103 -260.423925 -1568.599945 -259.56777 -1575.805826 -259.579333 C -1583.011708 -259.590896 -1590.153284 -260.418366 -1597.18391 -262.139137 C -1604.262992 -263.823833 -1611.128778 -266.35002 -1617.779457 -269.676378 C -1624.431948 -273.044056 -1630.765173 -277.118774 -1636.73249 -281.977927 C -1642.699806 -286.837081 -1648.2437 -292.310145 -1653.317528 -298.474513 C -1658.391355 -304.638881 -1662.889147 -311.360104 -1666.85936 -318.602108 C -1670.829572 -325.844111 -1674.166236 -333.472443 -1676.871162 -341.528426 C -1679.574278 -349.543089 -1681.640221 -357.861442 -1682.963024 -366.349035 C -1684.337906 -374.883193 -1684.966025 -383.503951 -1684.895836 -392.175235 C -1684.974638 -400.820935 -1684.301241 -409.429275 -1682.974371 -417.969427 C -1681.645688 -426.468259 -1679.60783 -434.769697 -1676.90744 -442.796348 C -1674.156782 -450.817753 -1670.840504 -458.492221 -1666.854449 -465.726622 C -1662.918661 -472.966268 -1658.357928 -479.647132 -1653.324863 -485.82627 C -1648.241532 -492.000163 -1642.72889 -497.512295 -1636.736671 -502.357422 C -1630.744452 -507.20255 -1624.418023 -511.272447 -1617.809463 -514.613681 C -1611.150636 -517.94967 -1604.256322 -520.4796 -1597.225245 -522.172642 C -1590.145712 -523.901758 -1583.028138 -524.763158 -1575.771989 -524.74635 C -1568.566107 -524.734787 -1561.474798 -523.912562 -1554.393905 -522.186546 C -1547.314823 -520.50185 -1540.449037 -517.975663 -1533.796546 -514.607985 C -1527.145867 -511.281627 -1520.812642 -507.206909 -1514.845325 -502.347756 C -1508.878009 -497.488602 -1503.332303 -491.974219 -1498.260287 -485.85117 C -1493.18646 -479.686802 -1488.688668 -472.965578 -1484.718455 -465.723575 C -1480.748243 -458.481572 -1477.411579 -450.853239 -1474.706652 -442.797257 C -1472.003537 -434.782594 -1469.937594 -426.464241 -1468.61479 -417.976648 C -1467.290176 -409.447736 -1466.61179 -400.821732 -1466.681979 -392.150448 Z M -1466.681979 -392.150448 " stroke="#445a26" stroke-width="0.3" stroke-opacity="1" stroke-miterlimit="4"/></svg>