<?xml version="1.0" encoding="UTF-8"?>
<svg id="Layer_1" data-name="Layer 1" xmlns="http://www.w3.org/2000/svg" width="45" height="45" viewBox="0 0 45 45">
  <defs>
    <style>
      .cls-1 {
        fill: #c7cdd7;
      }

      .cls-1, .cls-2, .cls-3, .cls-4 {
        stroke: #1e222a;
        stroke-linecap: round;
        stroke-linejoin: round;
      }

      .cls-2, .cls-3 {
        fill: #d1d5db;
      }

      .cls-3, .cls-4 {
        fill-rule: evenodd;
      }

      .cls-4 {
        fill: #fff;
      }
    </style>
  </defs>
  <g>
    <path class="cls-3" d="m33.51,31.19h-6.42c-1.67,0-2.5.8-2.5,2.4v.66c.06,1.46.61,2.66,1.64,3.61,1.16,1.03,2.52,1.55,4.08,1.55s2.94-.52,4.02-1.55c.68-.55,1.16-1.2,1.46-1.96.19-.51.28-1.05.28-1.64v-.66c0-1.6-.85-2.4-2.56-2.4Zm-13.1,2.4c0-1.6-.85-2.4-2.56-2.4h-6.42c-1.67,0-2.5.8-2.5,2.4v.66c.06,1.46.61,2.66,1.64,3.61,1.16,1.03,2.52,1.55,4.08,1.55s2.94-.52,4.02-1.55c.68-.55,1.16-1.2,1.46-1.96.19-.51.28-1.05.28-1.64v-.66Z"/>
    <line class="cls-2" x1="20.41" y1="33.27" x2="24.59" y2="33.27"/>
  </g>
  <g>
    <polygon class="cls-2" points="9.37 18.97 8.7 24.35 19.77 24.85 27.44 24.85 35.66 24.38 34.9 19.04 29.65 19.39 22.18 19.62 15.89 19.52 9.37 18.97"/>
    <g>
      <path class="cls-4" d="m42.84,24.29c-.3-.32-.67-.47-1.14-.47-1.12.13-2.25.24-3.39.35-.91.08-1.79.16-2.66.22-8.99.65-17.97.64-26.96-.03-.99-.08-1.99-.17-3.01-.25-.78-.11-1.6-.2-2.47-.28-.44,0-.83.16-1.17.47-.3.32-.44.71-.44,1.17s.15.82.44,1.14c.34.36.73.54,1.17.54,12.85,1.45,25.67,1.45,38.47,0,.46,0,.84-.18,1.14-.54.36-.32.54-.7.54-1.14s-.18-.85-.54-1.17Z"/>
      <line class="cls-1" x1="35.66" y1="24.38" x2="34.9" y2="19.04"/>
      <line class="cls-1" x1="9.37" y1="18.97" x2="8.7" y2="24.35"/>
      <path class="cls-4" d="m33.45,8.91c-.46-3.27-2.49-4.12-6.08-2.56-3.61,1.56-7.18,1.56-10.73,0-3.54-1.56-5.54-.73-5.98,2.5l-1.3,10.12c8.46.84,16.97.87,25.53.06l-1.46-10.12Z"/>
    </g>
  </g>
</svg>